<svg width="118" height="118" viewBox="0 0 118 118" fill="none" xmlns="http://www.w3.org/2000/svg">
  <path d="M12.2917 59C12.2917 36.9815 12.2917 25.9722 19.1319 19.1319C25.9723 12.2917 36.9815 12.2917 59 12.2917C81.0183 12.2917 92.0277 12.2917 98.8683 19.1319C105.708 25.9722 105.708 36.9815 105.708 59C105.708 81.0183 105.708 92.0277 98.8683 98.8683C92.0277 105.708 81.0183 105.708 59 105.708C36.9815 105.708 25.9723 105.708 19.1319 98.8683C12.2917 92.0277 12.2917 81.0183 12.2917 59Z" stroke="#364153" stroke-width="8.5"/>
  <path d="M12.2917 44.25H105.708" stroke="#364153" stroke-width="8.5" stroke-linejoin="round"/>
  <path d="M34.4158 29.5H34.4599" stroke="#364153" stroke-width="8.5" stroke-linecap="round" stroke-linejoin="round"/>
  <path d="M54.0825 29.5H54.1267" stroke="#364153" stroke-width="8.5" stroke-linecap="round" stroke-linejoin="round"/>
  <path d="M83.5834 83.5833C83.5834 70.0065 72.5769 59 59 59C45.423 59 34.4167 70.0065 34.4167 83.5833" stroke="#364153" stroke-width="8.5" stroke-linecap="round"/>
  <path d="M62.476 75.1904L55.5229 82.1436" stroke="#364153" stroke-width="8.5" stroke-linecap="round" stroke-linejoin="round"/>
</svg>
