<svg width="118" height="118" viewBox="0 0 118 118" fill="none" xmlns="http://www.w3.org/2000/svg">
  <path d="M83.5833 9.83333V19.6667M59 9.83333V19.6667M34.4166 9.83333V19.6667" stroke="#364153" stroke-width="8.5" stroke-linecap="round" stroke-linejoin="round"/>
  <path d="M17.2084 49.1667C17.2084 32.9425 17.2084 24.8304 22.2486 19.7902C27.2888 14.75 35.4009 14.75 51.625 14.75H66.375C82.5991 14.75 90.7111 14.75 95.7516 19.7902C100.792 24.8304 100.792 32.9425 100.792 49.1667V73.75C100.792 89.974 100.792 98.086 95.7516 103.127C90.7111 108.167 82.5991 108.167 66.375 108.167H51.625C35.4009 108.167 27.2888 108.167 22.2486 103.127C17.2084 98.086 17.2084 89.974 17.2084 73.75V49.1667Z" stroke="#364153" stroke-width="8.5" stroke-linecap="round" stroke-linejoin="round"/>
  <path d="M66.375 78.6667H83.5833" stroke="#364153" stroke-width="8.5" stroke-linecap="round"/>
  <path d="M66.375 44.25H83.5833" stroke="#364153" stroke-width="8.5" stroke-linecap="round"/>
  <path d="M34.4166 49.1667C34.4166 49.1667 36.875 49.1667 39.3333 54.0833C39.3333 54.0833 47.1421 41.7917 54.0833 39.3333" stroke="#364153" stroke-width="8.5" stroke-linecap="round" stroke-linejoin="round"/>
  <path d="M34.4166 83.5833C34.4166 83.5833 36.875 83.5833 39.3333 88.5C39.3333 88.5 47.1421 76.2083 54.0833 73.75" stroke="#364153" stroke-width="8.5" stroke-linecap="round" stroke-linejoin="round"/>
</svg>
